<svg id="Logo" xmlns="http://www.w3.org/2000/svg" width="83.535" height="45.452" class="{{ include.class }}" viewBox="0 0 83.535 46">
  <path id="_0-2" data-name=" 0-2" d="M5141.543,254.632a17.113,17.113,0,0,1-3.427-.345,16.993,16.993,0,0,1-13.577-16.658V226.184a17,17,0,0,1,13.577-16.658,17.168,17.168,0,0,1,6.853,0,16.982,16.982,0,0,1,13.231,13.231,17.083,17.083,0,0,1,.347,3.427v11.444a17.189,17.189,0,0,1-.346,3.427,16.89,16.89,0,0,1-2.557,6.08,16.97,16.97,0,0,1-14.1,7.5Zm0-34.089a5.661,5.661,0,0,0-5.667,5.659v11.4a5.667,5.667,0,1,0,11.334.06v-11.45a5.663,5.663,0,0,0-5.659-5.668Z" transform="translate(-5107.188 -209.18)"/>
  <path id="_1" data-name="1" d="M5068.994,209.18h0a5.641,5.641,0,0,1,5.641,5.641v34.169a5.641,5.641,0,0,1-5.641,5.641h0a5.641,5.641,0,0,1-5.642-5.641V214.821A5.641,5.641,0,0,1,5068.994,209.18Z" transform="translate(-5063.353 -209.18)"/>
  <path id="Path_17" data-name="Path 17" d="M5.652,45.452A5.647,5.647,0,0,1,0,39.81V5.652A5.647,5.647,0,0,1,5.642,0H20.429a5.681,5.681,0,1,1,0,11.363h-6.34a2.8,2.8,0,0,0-1.971.845,2.852,2.852,0,0,0,.013,4,2.8,2.8,0,0,0,2,.832h.309a5.681,5.681,0,0,1,.005,11.363h-.157v0c-.051,0-.1,0-.157,0a2.8,2.8,0,0,0-2,.832,2.831,2.831,0,0,0-.828,2.009c0,.025,0,.05,0,.075h0V39.8a5.647,5.647,0,0,1-5.642,5.652H5.652" transform="translate(57.426 0)" fill="#ff6583"/>
</svg>
