<?xml version="1.0" encoding="UTF-8"?>
<!-- Generator: Adobe Illustrator 26.1.0, SVG Export Plug-In . SVG Version: 6.00 Build 0)  -->
<svg version="1.1" id="Layer_1" xmlns="http://www.w3.org/2000/svg" xmlns:xlink="http://www.w3.org/1999/xlink" x="0px" y="0px" viewBox="0 0 197 59" style="enable-background:new 0 0 197 59;" xml:space="preserve">
<style type="text/css">
	.st0{enable-background:new    ;}
	.st1{fill:#FF931E;}
	.st2{fill:#3887B7;}
</style>
<g id="wordmark" transform="translate(-29 -25)">
	<g class="st0">
		<path class="st1" d="M62.2,33l-7.1,21h-2.3l-6.1-17.9L40.5,54h-2.3l-7.1-21h2.3l6.1,18.1L45.7,33h2.1L54,51.2L60.1,33H62.2z"/>
		<path class="st1" d="M69.8,52.8c-1.7-0.9-3-2.2-4-3.8c-1-1.6-1.4-3.4-1.4-5.5c0-2,0.5-3.8,1.4-5.5c0.9-1.6,2.3-2.9,4-3.8    s3.6-1.4,5.7-1.4c2.1,0,4,0.5,5.6,1.4c1.7,0.9,3,2.2,3.9,3.8s1.4,3.5,1.4,5.5c0,2-0.5,3.8-1.4,5.5c-1,1.6-2.3,2.9-3.9,3.8    c-1.7,0.9-3.5,1.4-5.6,1.4C73.4,54.2,71.5,53.7,69.8,52.8z M80,51.1c1.3-0.8,2.4-1.8,3.1-3.1c0.8-1.3,1.1-2.8,1.1-4.5    c0-1.6-0.4-3.1-1.1-4.5c-0.8-1.3-1.8-2.4-3.1-3.1c-1.3-0.8-2.8-1.1-4.5-1.1c-1.7,0-3.2,0.4-4.5,1.1s-2.4,1.8-3.2,3.1    s-1.2,2.8-1.2,4.5c0,1.6,0.4,3.1,1.2,4.5s1.8,2.4,3.2,3.1s2.9,1.1,4.5,1.1C77.1,52.2,78.6,51.8,80,51.1z"/>
		<path class="st1" d="M91.6,33h2.2v19.1h11.8V54h-14V33z"/>
		<path class="st1" d="M111.7,34.9v8.2h10.9v1.9h-10.9V54h-2.2V33h14.4v1.9H111.7z"/>
		<path class="st1" d="M143.2,44.1l-4.3,4.4V54h-2.2V33h2.2v12.7L151.3,33h2.5l-9.1,9.5l9.7,11.5h-2.6L143.2,44.1z"/>
		<path class="st1" d="M171.4,48.4h-11.7l-2.5,5.6h-2.3l9.6-21h2.2l9.6,21h-2.3L171.4,48.4z M170.6,46.6l-5-11.3l-5,11.3H170.6z"/>
		<path class="st1" d="M197.5,33v21h-2.2v-9.7h-13.1V54h-2.2V33h2.2v9.4h13.1V33H197.5z"/>
		<path class="st1" d="M222,33v21h-1.8l-13.5-17v17h-2.2V33h1.8l13.5,17V33H222z"/>
	</g>
	<g class="st0">
		<path class="st2" d="M34.9,64.3v4.4h7.8v3.1h-7.8V78H31V61.2h12.7v3.1H34.9z"/>
		<path class="st2" d="M52,77.2c-1.4-0.8-2.5-1.8-3.3-3.1c-0.8-1.3-1.2-2.8-1.2-4.5c0-1.6,0.4-3.1,1.2-4.5c0.8-1.3,1.9-2.4,3.3-3.1    c1.4-0.8,3-1.1,4.7-1.1c1.7,0,3.3,0.4,4.7,1.1s2.5,1.8,3.3,3.1c0.8,1.3,1.2,2.8,1.2,4.5c0,1.6-0.4,3.1-1.2,4.5    c-0.8,1.3-1.9,2.4-3.3,3.1s-3,1.1-4.7,1.1C55,78.3,53.4,77.9,52,77.2z M59.4,74.3c0.8-0.5,1.4-1.1,1.9-1.9    c0.5-0.8,0.7-1.7,0.7-2.8c0-1-0.2-2-0.7-2.8c-0.5-0.8-1.1-1.5-1.9-1.9c-0.8-0.5-1.7-0.7-2.7-0.7s-1.9,0.2-2.7,0.7    c-0.8,0.5-1.4,1.1-1.9,1.9c-0.5,0.8-0.7,1.7-0.7,2.8c0,1,0.2,2,0.7,2.8c0.5,0.8,1.1,1.5,1.9,1.9c0.8,0.5,1.7,0.7,2.7,0.7    S58.6,74.7,59.4,74.3z"/>
		<path class="st2" d="M73.1,76.3c-1.3-1.3-2-3.2-2-5.7v-9.4H75v9.3c0,3,1.2,4.5,3.7,4.5c1.2,0,2.1-0.4,2.8-1.1c0.6-0.7,1-1.9,1-3.4    v-9.3h3.8v9.4c0,2.5-0.7,4.4-2,5.7c-1.3,1.3-3.2,2-5.6,2S74.4,77.6,73.1,76.3z"/>
		<path class="st2" d="M107.9,61.2V78h-3.2l-8.4-10.2V78h-3.8V61.2h3.2l8.4,10.2V61.2H107.9z"/>
		<path class="st2" d="M114.3,61.2h7.6c1.8,0,3.4,0.3,4.8,1c1.4,0.7,2.5,1.7,3.3,2.9c0.8,1.3,1.2,2.7,1.2,4.4c0,1.7-0.4,3.2-1.2,4.4    c-0.8,1.3-1.9,2.2-3.3,2.9c-1.4,0.7-3,1-4.8,1h-7.6V61.2z M121.8,74.8c1.7,0,3-0.5,4-1.4c1-0.9,1.5-2.2,1.5-3.8    c0-1.6-0.5-2.9-1.5-3.8c-1-0.9-2.3-1.4-4-1.4h-3.6v10.4H121.8z"/>
		<path class="st2" d="M147.4,74.4h-7.8l-1.5,3.6h-4l7.5-16.8h3.8l7.5,16.8h-4.1L147.4,74.4z M146.1,71.4l-2.7-6.4l-2.7,6.4H146.1z"/>
		<path class="st2" d="M159.7,64.4h-5.4v-3.2H169v3.2h-5.4V78h-3.9V64.4z"/>
		<path class="st2" d="M173.5,61.2h3.9V78h-3.9V61.2z"/>
		<path class="st2" d="M187.2,77.2c-1.4-0.8-2.5-1.8-3.3-3.1c-0.8-1.3-1.2-2.8-1.2-4.5c0-1.6,0.4-3.1,1.2-4.5    c0.8-1.3,1.9-2.4,3.3-3.1c1.4-0.8,3-1.1,4.7-1.1s3.3,0.4,4.7,1.1s2.5,1.8,3.3,3.1c0.8,1.3,1.2,2.8,1.2,4.5c0,1.6-0.4,3.1-1.2,4.5    c-0.8,1.3-1.9,2.4-3.3,3.1s-3,1.1-4.7,1.1S188.6,77.9,187.2,77.2z M194.6,74.3c0.8-0.5,1.4-1.1,1.9-1.9c0.5-0.8,0.7-1.7,0.7-2.8    c0-1-0.2-2-0.7-2.8c-0.5-0.8-1.1-1.5-1.9-1.9c-0.8-0.5-1.7-0.7-2.7-0.7s-1.9,0.2-2.7,0.7c-0.8,0.5-1.4,1.1-1.9,1.9    c-0.5,0.8-0.7,1.7-0.7,2.8c0,1,0.2,2,0.7,2.8c0.5,0.8,1.1,1.5,1.9,1.9c0.8,0.5,1.7,0.7,2.7,0.7S193.8,74.7,194.6,74.3z"/>
		<path class="st2" d="M221.8,61.2V78h-3.2l-8.4-10.2V78h-3.8V61.2h3.2l8.4,10.2V61.2H221.8z"/>
	</g>
</g>
</svg>